<svg xmlns="http://www.w3.org/2000/svg" viewBox="0 0 500 500">
  <defs>
    <linearGradient id="grad1" x1="0%" y1="0%" x2="100%" y2="100%">
      <stop offset="0%" style="stop-color:#66FFB2;stop-opacity:1" />
      <stop offset="50%" style="stop-color:#38B6FF;stop-opacity:1" />
      <stop offset="100%" style="stop-color:#7B61FF;stop-opacity:1" />
    </linearGradient>
  </defs>
  <!-- Cloud outline -->
  <path d="M100 200 Q120 150 180 140 Q220 130 240 100 Q260 70 320 70 Q380 70 400 100 Q420 130 420 160 Q420 190 410 210 L440 230 Q460 240 460 270 Q460 300 450 320 Q440 340 420 350 L160 370 Q100 370 80 320 Q60 270 80 220 Z" 
        fill="none" 
        stroke="url(#grad1)" 
        stroke-width="8" 
        stroke-linecap="round" 
        stroke-linejoin="round"/>
  <!-- AWS smile -->
  <path d="M115 135 Q130 125 155 130" 
        stroke="#FF9900" 
        stroke-width="6" 
        fill="none" 
        stroke-linecap="round"/>
  <!-- Stars -->
  <path d="M175 50 L185 70 L165 70 Z" fill="#7B61FF"/>
  <path d="M410 100 L420 120 L400 120 Z" fill="#7B61FF"/>
  <path d="M60 180 L70 200 L50 200 Z" fill="#7B61FF"/>
  <path d="M440 180 L450 200 L430 200 Z" fill="#7B61FF"/>
</svg>
